<?xml version="1.0" encoding="UTF-8"?>
<svg id="Ebene_1" data-name="Ebene 1" xmlns="http://www.w3.org/2000/svg" viewBox="0 0 804.43 915.32">
  <g>
    <path d="M427.18,389.67c19.1-4.87,38.75-3.9,56.97,3.53,13.27,5.41,23.51,14.38,38.49,15.51,27.05,2.02,45.13-1.47,72.23,8.77,24.99,9.44,24.4,20.79,37.87,39.13,7.65,10.42,19.73,10.09,30.65,15.35,29.22,14.09,34.47,57.22,63.57,66.43,11.65,3.69,25.58,1.98,37.76,2.24,7.27.15,17.48,3.98,23.46-1.96-2.09,22.99-6.27,40.17-20,59-6.43.45-5.48,3.75-8.07,6.43-9.43,9.78-20.29,4.84-31.2,6.8-11.28,2.03-6.75,18.25-6.7,26.22.32,46.61-2.47,89.62-42.53,119.54-10.07,7.52-38.62,19.72-50.8,16.98-.73-.16-.65-1.56-1.52-1.88-5.92-2.17-14.41-5.29-20.16-.57-.49.4-5.31,10.44-5.59,11.41-4.19,14.95-8.96,26.82-18.43,39.57-10.81,14.54-23.06,24.41-42.41,22.38-4.04-.42-10.97-3.42-14.8-2.68-3.62.71-6.6,3.88-9.82,5.28l-3.98,6.5c-.34.32-.67.67-1,1-5.27-1.12-4.29,2.66-6.45,5.05-8.32,9.23-18.05,16.95-29.47,22.53-1.45.71-2.15,2.72-3.78,3.22-6.9,2.13-6.75-2.29-10.58-5.02-4.37-3.1-11.7-4.79-16.64-2.2s-8.28,7.61-12.04,10.95c-4.59,4.08-9.67,7.65-13.66,12.37-5.03,1.34-5.1-3.72-6.7-5.57-1.82-2.1-8.3-4.52-11.16-4.4-7.46.31-8.97,8.31-11.51,9.59-5.47,2.75-13.17-10.17-16.77-13.48-.67-.62-2.18-.78-3.16-1.61-3.72-3.13-6.76-7.44-12.28-8.78-11.14-2.71-14.49,8.12-20.3,8.45-1.66.09-13.95-5.75-16.03-7.08-8.51-5.42-17.37-17.21-24.69-24.06-4.39-4.11-9.26-9.1-15.07-11.18-10.68-3.82-18.47,2.88-29.15,1.14-2.08-.34-15.22-5.33-16.53-6.51-1.03-.92-.86-2.63-1.36-3.09-6.32-5.79-9.11-8.1-14.03-15.48-2.83-4.25-8.26-11.17-6.64-15.86-.25-.27-2.74,1.84-3.48.03-3-3.75-10.72-31.15-12.12-32.14-3.44-2.42-11.28-3.36-15.38-2.21-2.24.63-6.32,4.19-6.72,4.28-1.46.33-12.29.39-13.59.06-.99-.26-.88-2.21-2.36-2.82-6.51-2.68-16.32-2.67-23.32-6.73-3.12-1.81-2.5-1.88-6.97-4-5.6-2.66-10.55-11.42-17.05-11.47-.11-.29.12-.72,0-1-2.09-4.8-9.33-16.28-12.9-20.37-.91-1.04-2.62-.09-3.12-1.29-3.31-7.98-7.73-20.62-9.91-28.9-1.53-5.78-1.54-12.78-3.15-17.66-1.03-3.13-.96-.73-1.28-6.11-.63-10.35-1.67-24.03-.64-34.17.62-6.11,4.59-12.93,2.45-19.44-.2-.6-3.03-6.07-3.42-6.57-4.3-5.61-21.3-1.09-28.03-3.49l1.01-1.97c-4.12-.34-6.88-2.73-9.61-5.43-2.94-2.9-4.97-7.19-7.69-10.37-.74-.87-3.91,1.16-2.71-4.23,9.52-.23,21.95-5.17,31.75-6.75,7.47-1.2,25.71-.29,29.82-6.18,5.53-7.94-3.92-27.28,2.58-38.42,4.04-6.93,16.12-10.81,23.59-12.41,12.57-2.71,21.89.44,25.8-15.2,4.2-16.79,3.71-32.09,11.29-48.71,12.47-27.33,42.08-37.8,70.62-38.38,14.66-.29,33.57,3.2,47.81.81,9.03-1.52,13.94-9.49,20.26-14.74,22.27-18.47,52.45-21.19,80.47-19.03-1.69,7.16,3.95,14.9,8.49,20.01,1.68,1.89,7.01,5.36,7.38,6.7.65,2.33-1.38,8.69-3.49,10.18-7.01,4.96-34.59,3.53-43.16,1.4-6.96-1.72-19.9-8.67-25.87-8.98-4.78-.25-6.22,2.79-5.34,7.18.81,4.05,10.54,7.67,13.9,10.11,4.44,3.22,10.4,7.93,14.05,11.95,19.37,21.31,28.92,74.67,67.83,63.77,28.3-7.92,35.09-54.37,61.28-73.72,4.11-3.04,15.7-7.92,16.71-12.3s-.34-7.27-5.14-6.98c-5.77.34-18.96,7.27-25.87,8.98-8.77,2.18-35.84,3.47-43.18-1.39-2.09-1.38-4.1-7.94-3.47-10.19.46-1.64,4.76-3.84,6.39-5.68,4.64-5.21,10.86-12.68,9.48-20.02Z" style="fill: #f7bb5c;"/>
    <path d="M112.18,748.67c6.5.05,11.45,8.81,17.05,11.47,4.47,2.12,3.85,2.19,6.97,4,7,4.06,16.8,4.05,23.32,6.73,1.48.61,1.37,2.56,2.36,2.82,1.3.34,12.14.28,13.59-.06.4-.09,4.47-3.65,6.72-4.28,4.11-1.15,11.94-.22,15.38,2.21,1.4.99,9.12,28.38,12.12,32.14.74,1.82,3.23-.3,3.48-.03-1.62,4.69,3.81,11.61,6.64,15.86,4.92,7.38,7.71,9.68,14.03,15.48.51.46.34,2.18,1.36,3.09,1.31,1.17,14.45,6.17,16.53,6.51,10.67,1.74,18.46-4.97,29.15-1.14,5.82,2.08,10.68,7.07,15.07,11.18,7.32,6.84,16.18,18.64,24.69,24.06,2.08,1.33,14.38,7.17,16.03,7.08,5.81-.33,9.16-11.17,20.3-8.45,5.52,1.35,8.56,5.66,12.28,8.78.98.83,2.49.99,3.16,1.61,3.59,3.31,11.3,16.23,16.77,13.48,2.54-1.28,4.05-9.28,11.51-9.59,2.86-.12,9.34,2.3,11.16,4.4,1.6,1.85,1.66,6.9,6.7,5.57,3.99-4.72,9.08-8.29,13.66-12.37,3.76-3.34,6.97-8.3,12.04-10.95s12.28-.9,16.64,2.2c3.84,2.73,3.69,7.14,10.58,5.02,1.62-.5,2.33-2.51,3.78-3.22,11.42-5.58,21.15-13.29,29.47-22.53,2.16-2.4,1.18-6.17,6.45-5.05-10.81,10.7-21.7,26.19-37.02,31.48-13.69,4.73-11.67-3.81-19.95-6.01-6.44-1.71-9.3.27-14.05,4.01-7.98,6.29-14.87,16.43-23.56,22.48-2.98.67-5.91-12.55-14.02-12.9-8.97-.39-11.71,13.6-14.85,12.9-8.68-6.05-15.58-16.19-23.56-22.48-4.87-3.84-7.61-5.56-14.24-4.2-7.35,1.51-5.8,10.43-18.33,6.76-21.8-6.4-40.36-41.72-56.95-42.13-7.72-.19-15.22,3.12-24.89,1.97-27.14-3.24-46.85-51.18-54.89-73.62-8.26-5.17-15.93,2.9-25.21,2.81-12.81-.13-52.71-14.83-57.5-27.08Z" style="fill: #d9b174;"/>
    <path d="M768.18,597.67c-5.27,7.23-10.48,13.87-20.5,15-12.53,1.42-24.55-5.62-24.56,12.5-.02,33.51,5,52.03-7.19,85.74-11.89,32.87-44.38,64.3-81.25,64.83-9.15.13-18.31-8.26-26.48-2.56-1.71,1.19-6.07,18.71-7.54,22.47-5.99,15.34-23.87,43.53-39.8,49.2-19.78,7.05-30.18-8.52-48.69,8.81l3.98-6.5c3.23-1.4,6.2-4.58,9.82-5.28,3.82-.75,10.76,2.25,14.8,2.68,19.35,2.02,31.6-7.85,42.41-22.38,9.48-12.74,14.24-24.62,18.43-39.57.27-.97,5.1-11.01,5.59-11.41,5.75-4.72,14.24-1.59,20.16.57.87.32.79,1.71,1.52,1.88,12.18,2.73,40.73-9.46,50.8-16.98,40.06-29.93,42.85-72.94,42.53-119.54-.05-7.97-4.59-24.19,6.7-26.22,10.9-1.96,21.76,2.98,31.2-6.8,2.58-2.68,1.63-5.99,8.07-6.43Z" style="fill: #d9b174;"/>
    <path d="M33.18,587.67c-1.2,5.39,1.96,3.36,2.71,4.23,2.72,3.18,4.76,7.46,7.69,10.37,2.72,2.69,5.49,5.09,9.61,5.43l-1.01,1.97c6.73,2.4,23.72-2.12,28.03,3.49.39.51,3.22,5.97,3.42,6.57,2.14,6.51-1.83,13.33-2.45,19.44-1.03,10.14.01,23.82.64,34.17.33,5.37.25,2.98,1.28,6.11,1.61,4.88,1.62,11.88,3.15,17.66,2.19,8.29,6.61,20.92,9.91,28.9.5,1.2,2.2.25,3.12,1.29,3.58,4.09,10.82,15.57,12.9,20.37-2.34-.62-5.47-4.65-6.97-6.53-29.4-36.79-24.87-71.49-23.97-114.93.42-20.16-12.85-11.5-26.32-13.78-12.31-2.08-20.44-15.76-25.74-25.76,1.22.77,2.57,1.04,4,1Z" style="fill: #d9b174;"/>
    <g>
      <path d="M427.18,389.67c1.39,7.35-4.84,14.81-9.48,20.02-1.63,1.84-5.94,4.05-6.39,5.68-.63,2.25,1.39,8.81,3.47,10.19,7.34,4.86,34.41,3.56,43.18,1.39,6.91-1.72,20.1-8.64,25.87-8.98,4.8-.28,6.15,2.62,5.14,6.98s-12.59,9.26-16.71,12.3c-26.2,19.35-32.99,65.79-61.28,73.72-38.91,10.9-48.46-42.46-67.83-63.77-3.65-4.02-9.61-8.73-14.05-11.95-3.36-2.44-13.09-6.06-13.9-10.11-.88-4.38.55-7.42,5.34-7.18,5.96.31,18.91,7.26,25.87,8.98,8.57,2.12,36.15,3.55,43.16-1.4,2.11-1.49,4.14-7.85,3.49-10.18-.37-1.34-5.7-4.8-7.38-6.7-4.54-5.11-10.18-12.85-8.49-20.01.83-3.54,6.87-5.65,10-6.5,8.35-2.28,37.88-3.73,40,7.5ZM403,467.48c-2.19.89-9.54-6.86-12.77-8.36-6.02-2.79-22.16-4.69-18.27,5.27,3.11,7.97,15.63,26.42,24.01,28.99,15.16,4.65,22.35-5.93,29.24-17.19,2.79-4.56,8.79-11.4,3.92-15.97-6.22-5.84-17.35-.58-23.15,3.51-1.12.79-2.75,3.66-2.97,3.75Z" style="fill: #080403;"/>
      <path d="M403,467.48c.22-.09,1.85-2.96,2.97-3.75,5.79-4.09,16.93-9.35,23.15-3.51,4.87,4.57-1.13,11.41-3.92,15.97-6.88,11.26-14.08,21.85-29.24,17.19-8.38-2.57-20.89-21.02-24.01-28.99-3.89-9.95,12.25-8.06,18.27-5.27,3.23,1.5,10.59,9.25,12.77,8.36Z" style="fill: #d4888a;"/>
    </g>
  </g>
  <g>
    <path d="M308.5,42.33c7.09,6.84,15.16,13.98,21.65,21.87,9.24,11.24,16.81,23.76,23.74,36.5,3.01.43,5.8-.99,8.75-1.07,25.32-.73,52.75-.64,78.09,0,3.39.08,6.4,1.3,9.78,1.1l20-32.72c27.51-30.61,85.23-90.32,129.58-58.75,25.89,18.43,30.03,59.02,30.09,88.42,10.3-.99,19.88-2.46,29.7,1.8,14.57,6.33,10.61,13.82,4.59,24.94-.88,1.62-4.3,2.03-1.79,6.27.67,1.12,19.82,9.23,23.42,11.57,11.51,7.52,15.79,13.82,7.09,25.91-2.37,3.3-8.09,5.3-5.51,10.51.46.93,13.37,8.42,15.83,10.18,30.78,21.98,77.91,71.3,52.22,111.85-2.98,4.7-9.22,7.99-7.34,14.25.44,1.47,8.1,8.98,9.79,11.23,17.15,22.86,49.91,74.11,45.93,102.89-.37,2.68-2.43,7.8-4.39,9.61-1.74,1.6-5.51,2.31-6.54,3.46-3.84,4.31,2.29,40.04,3.01,48.02,3.44,38.28,2.23,86.78-25.03,116.97-10.8,11.96-23.07,15.62-38.97,13.53.08,22.75,2.71,44.45-1.44,67.06-8.41,45.72-44.64,94.72-95.02,96-9.02.23-14.09-4.31-22.39-3.92-3.23,18.2-12.59,34.46-23.32,49.18s-23.71,26.62-42.36,26.72c-7.41.04-14.72-4.77-22.19-2.26-6.84,2.3-16.12,15.87-21.75,21.2-7.73,7.31-25.23,21.37-36.01,21.11-8.93-.22-13.74-9.73-19.79-7.88-10.87,8.67-19.59,21.52-32.22,27.45-3.08-.03-6.21-5.47-7.96-5.73s-10.43-.28-11.83.06c-1.03.25-2.04,5.19-7.22,5.1-2.41-.04-9.96-5.54-12.13-7.43-4.62-4.03-10.24-11.4-14.86-15.64-2.75-2.52-6.59-5.48-10.52-3.52-1.31.65-1.48,2.7-2.7,3.54-10.29,7.07-18.94,3.32-28.57-2.23-14.84-8.55-21.99-20.13-34.18-30.85-13.12-11.53-15.38-2.84-28.97-2.92-29.6-.19-55.35-39.71-63.04-65.04-.65-2.14-2.12-11.52-2.58-11.91-1.61-1.34-13.63,4.54-17.41,4.92-5.71.57-13.83-1.17-19.52-2.49-45.48-10.54-73.15-51.16-80.67-95.33-3.78-22.16-1.51-42.92-1.31-65.19-15.85,1.89-28.5-1.44-38.98-13.52-27.25-31.43-28.5-77.58-25.02-116.97.7-7.93,7.08-43.76,2.74-48.26-2.96-3.07-6.42-1.24-9.22-8.27-6.73-16.91,8.09-48.19,16.31-63.65,10.51-19.78,24.16-39.27,38.96-56.03,1.6-6.72-.94-4.25-2.84-5.96-10.3-9.26-13.11-26.69-11.93-39.82,2.8-31.19,34.7-61.84,58.67-79.33,2.4-1.75,15.34-9.37,15.83-10.17,3.64-5.85-12.15-13.36-10.13-23.06,1.4-6.71,10.08-12.24,15.59-15.48,2.95-1.73,18.98-8.53,19.54-9.46,3.73-6.09-12.28-13.71-5.47-25.26,5.88-9.98,28.08-9.56,37.95-7.76-.14-30.22,4.52-70.52,31.08-89.42,34.3-24.4,79.09,10.76,103.23,34.07ZM788.18,538.67c2.62-28.84-2.31-48.98-3.99-76.51-.38-6.24-1.28-20.54,2.97-25.01,6.45-6.79,9.88-.42,9.06-16.02-1.39-26.43-29.96-73.46-47.06-93.93-3.07-3.67-17.66-16.83-18-19.08-1.22-7.99,11.22-3.79,16-7.98,9.1-7.98,7.52-32.79,4.51-43.44-6.27-22.19-34.86-49.46-53.56-62.44-4.1-2.84-21.28-11.98-22.82-14.22-.91-1.32-1.22-2.65-.39-4.09,11.66-13.03,23.82-17.58,2.97-29.45-5.2-2.96-25.77-9.81-27.15-12.84-4.19-9.18,21.82-21.14,6.04-27.04-11.88-4.45-22.64.94-34.12-1.88-.49-36.1-4.31-100.23-54.92-96.05-35.81,2.96-80.88,48.46-99.93,77.07-5.3,7.96-8.14,18.71-17.33,22.67l-94.8.29c-9.16-1.69-9.68-8.14-13.65-14.35-38.35-60.05-145.85-149.68-158.79-19.18-.43,4.29-.6,28.34-1.45,29.55-2.3,3.3-29.27-3.67-37.52,3.47-6.57,5.68,7.77,15.85,9.44,19.48,4.36,9.49-12.36,11.74-18.44,14.52s-20.36,8.94-20.11,15.94,13.82,15.22,14.71,18.51c.5,1.85-.82,2.89-1.6,4.28-35.51,19.25-88.57,61.62-76.56,107.77,1.5,5.77,4.23,12.08,10.46,13.55,5.09,1.2,12.95-1.16,10.68,7.49-.47,1.79-10.3,8.95-12.63,11.4-18.36,19.38-50.08,72.71-51.96,99.04-1.1,15.44,1.27,9.57,8.41,16.56,5,4.9,3.91,16.63,3.56,23.42-2.33,45.26-13.96,83.14,9.01,126.51,5.3,10.01,13.43,23.68,25.74,25.76,13.47,2.27,26.74-6.38,26.32,13.78-.9,43.45-5.43,78.14,23.97,114.93,1.5,1.88,4.63,5.91,6.97,6.53.12.28-.11.71,0,1,4.79,12.25,44.69,26.95,57.5,27.08,9.28.09,16.96-7.98,25.21-2.81,8.04,22.43,27.75,70.38,54.89,73.62,9.67,1.15,17.17-2.16,24.89-1.97,16.58.41,35.14,35.72,56.95,42.13,12.53,3.68,10.98-5.24,18.33-6.76,6.63-1.37,9.36.35,14.24,4.2,7.98,6.29,14.87,16.43,23.56,22.48,3.14.7,5.87-13.29,14.85-12.9,8.11.35,11.03,13.57,14.02,12.9,8.68-6.05,15.58-16.19,23.56-22.48,4.74-3.74,7.61-5.72,14.05-4.01,8.28,2.2,6.26,10.73,19.95,6.01,15.32-5.29,26.21-20.78,37.02-31.48.33-.33.66-.68,1-1,18.5-17.33,28.9-1.77,48.69-8.81,15.93-5.67,33.8-33.86,39.8-49.2,1.47-3.75,5.83-21.27,7.54-22.47,8.17-5.7,17.33,2.69,26.48,2.56,36.87-.53,69.36-31.96,81.25-64.83,12.19-33.71,7.17-52.23,7.19-85.74.01-18.12,12.03-11.08,24.56-12.5,10.02-1.14,15.22-7.77,20.5-15,13.73-18.83,17.91-36.01,20-59Z" style="fill: #0c0504;"/>
    <path d="M29.18,586.67c-22.97-43.36-11.34-81.25-9.01-126.51.35-6.79,1.44-18.52-3.56-23.42-7.14-6.99-9.51-1.12-8.41-16.56,1.87-26.33,33.6-79.66,51.96-99.04,2.33-2.46,12.16-9.61,12.63-11.4,2.27-8.66-5.59-6.3-10.68-7.49-6.23-1.46-8.96-7.78-10.46-13.55-12-46.15,41.05-88.52,76.56-107.77.78-1.39,2.1-2.43,1.6-4.28-.89-3.29-14.46-11.28-14.71-18.51s14.32-13.29,20.11-15.94c6.09-2.77,22.8-5.03,18.44-14.52-1.67-3.63-16-13.8-9.44-19.48,8.25-7.14,35.22-.17,37.52-3.47.85-1.21,1.02-25.26,1.45-29.55,12.94-130.5,120.44-40.87,158.79,19.18,3.97,6.21,4.49,12.66,13.65,14.35l94.8-.29c9.2-3.95,12.04-14.71,17.33-22.67,19.05-28.61,64.12-74.11,99.93-77.07,50.61-4.18,54.43,59.94,54.92,96.05,11.48,2.82,22.24-2.57,34.12,1.88,15.78,5.9-10.22,17.86-6.04,27.04,1.38,3.03,21.95,9.88,27.15,12.84,20.85,11.87,8.69,16.42-2.97,29.45-.84,1.44-.53,2.77.39,4.09,1.54,2.23,18.72,11.38,22.82,14.22,18.7,12.97,47.29,40.25,53.56,62.44,3.01,10.66,4.59,35.47-4.51,43.44-4.78,4.19-17.22,0-16,7.98.34,2.25,14.93,15.41,18,19.08,17.11,20.47,45.67,67.5,47.06,93.93.82,15.6-2.61,9.23-9.06,16.02-4.24,4.47-3.35,18.77-2.97,25.01,1.68,27.53,6.6,47.67,3.99,76.51-5.98,5.93-16.19,2.11-23.46,1.96-12.18-.26-26.12,1.45-37.76-2.24-29.1-9.21-34.35-52.34-63.57-66.43-10.91-5.26-23-4.93-30.65-15.35-13.47-18.34-12.88-29.7-37.87-39.13-27.11-10.24-45.19-6.74-72.23-8.77-14.99-1.12-25.23-10.1-38.49-15.51-18.22-7.43-37.87-8.4-56.97-3.53-2.12-11.24-31.66-9.78-40-7.5-3.13.85-9.16,2.96-10,6.5-28.03-2.16-58.21.56-80.47,19.03-6.33,5.25-11.23,13.22-20.26,14.74-14.24,2.39-33.15-1.1-47.81-.81-28.54.57-58.15,11.04-70.62,38.38-7.58,16.62-7.09,31.92-11.29,48.71-3.91,15.64-13.24,12.49-25.8,15.2-7.46,1.61-19.54,5.49-23.59,12.41-6.5,11.14,2.95,30.48-2.58,38.42-4.1,5.9-22.35,4.99-29.82,6.18-9.81,1.57-22.24,6.51-31.75,6.75-1.43.04-2.78-.23-4-1ZM270.83,62.02c-10.65-10.3-21.04-17.81-34.86-7.29s-19.78,58.27-19.87,75.43c-.02,3.65,1.08,9.45,5.59,9.43,5.97-.03,13.33-19.36,23.07-20.91,7.57-1.21,13.18,11.85,24.69,9.75,6.41-1.17,5.45-6.24,5.73-11.76.78-.81,11.18,1.88,12.98,2.53,3.87,1.39,11.14,6.97,13.77,7.34,4.43.62,5.71-5.69,5.21-9.28-1.53-11.02-27.58-46.79-36.31-55.23ZM569.82,56.03c-18.71-19.01-40.56,9.51-51.04,23.75-5.69,7.74-22.44,32.67-21.69,41.4.96,11.23,14.05-.16,19.11-1.99,1.9-.69,8.9-2.67,10.46-2.52,6.48.61-.72,12.96,12.01,12.06,5.61-.4,16.97-10.87,19.59-10.62,1.9.18,9.74,5.92,11.44,7.54,3.83,3.63,5.85,10.02,9.52,12.48,5.9,3.94,8.93-1.24,8.99-7.01.15-12.89-1.81-28.54-4.51-41.47-2.08-9.92-6.72-26.35-13.88-33.62ZM266.92,278.91c-16.04,2.69-11.9,20.51-2.76,29.28,13.21,12.69,54.27,22.55,47.81-5.81-3.52-15.48-30.48-25.91-45.05-23.47ZM522.92,278.91c-4.86.82-16.05,6.77-20.07,9.93-16.99,13.37-15.19,33.92,9.87,31.87,14.86-1.22,38.44-14.99,35.22-32.3-1.96-10.58-16.56-10.93-25.02-9.49ZM297.71,380.28c4.87-6.72,7.64-13.22,7.38-22.01-.46-15.78-19.7-29.33-34.74-24.92-.71.21-9.69,4.52-10.15,4.85-1.01.73-1.17,2.78-2.04,3.96-5.86,7.94-7.63,7.74-7.99,19.05-.25,7.79,4.34,13.88,9,18.94,1.14,1.24,1.47,3.04,3.06,3.99,6.08,3.61,18.12,5.45,24.87,2.95,1.22-.45,9.7-4.04,10.1-4.42.08-.08-.98-1.32-.76-1.78.11-.23,1.03-.25,1.28-.6ZM551.91,360.57c0-14.05-11.39-25.44-25.44-25.44s-25.44,11.39-25.44,25.44,11.39,25.44,25.44,25.44,25.44-11.39,25.44-25.44Z" style="fill: #c97014;"/>
    <g>
      <path d="M270.83,62.02c8.72,8.44,34.77,44.21,36.31,55.23.5,3.59-.78,9.89-5.21,9.28-2.63-.37-9.9-5.95-13.77-7.34-1.8-.64-12.2-3.34-12.98-2.53-.28,5.53.69,10.59-5.73,11.76-11.52,2.1-17.12-10.96-24.69-9.75-9.74,1.55-17.1,20.88-23.07,20.91-4.51.03-5.6-5.78-5.59-9.43.08-17.16,5.51-64.5,19.87-75.43s24.21-3.02,34.86,7.29ZM292.18,109.67c.74-.68-9.06-15.65-10.18-17.31-5.51-8.15-24-33.7-34.22-32.69-8.61.85-14.1,19.05-15.92,26.17-1.1,4.34-6.11,30.83-4.67,32.82,5.11-3.41,12.25-10.55,18.61-10.97,6.39-.42,12.21,6.9,17.84,9,4.7-13.86,17.48-10.2,28.53-7.03Z" style="fill: #100705;"/>
      <path d="M292.18,109.67c-11.05-3.16-23.83-6.82-28.53,7.03-5.63-2.1-11.45-9.42-17.84-9-6.36.42-13.51,7.56-18.61,10.97-1.45-1.99,3.56-28.49,4.67-32.82,1.82-7.13,7.31-25.32,15.92-26.17,10.21-1.01,28.7,24.54,34.22,32.69,1.12,1.66,10.92,16.63,10.18,17.31Z" style="fill: #f0d0b0;"/>
    </g>
    <g>
      <path d="M569.82,56.03c7.16,7.27,11.8,23.7,13.88,33.62,2.7,12.93,4.66,28.58,4.51,41.47-.06,5.77-3.09,10.95-8.99,7.01-3.67-2.45-5.69-8.85-9.52-12.48-1.71-1.62-9.54-7.35-11.44-7.54-2.62-.25-13.99,10.22-19.59,10.62-12.73.9-5.53-11.45-12.01-12.06-1.56-.15-8.56,1.83-10.46,2.52-5.06,1.83-18.14,13.22-19.11,1.99-.75-8.73,16-33.66,21.69-41.4,10.47-14.25,32.33-42.76,51.04-23.75ZM577.17,118.67c.35-4.83-.51-9.58-1.16-14.33-1.35-9.89-7.14-43.45-19.43-44.66-10.23-1.01-28.67,24.52-34.22,32.68-2.42,3.55-8.84,12.5-10.17,15.83-.56,1.4.18,1.66,1.48,1.49,3.07-.41,6.63-2.54,10.12-2.89,8.28-.84,15.61,1.64,16.4,10.89,4.56-3.03,10.52-8.57,15.96-9.6,7.53-1.42,15.22,6.67,21.02,10.6Z" style="fill: #100705;"/>
      <path d="M577.17,118.67c-5.8-3.93-13.49-12.02-21.02-10.6-5.44,1.02-11.4,6.56-15.96,9.6-.79-9.24-8.12-11.73-16.4-10.89-3.49.35-7.05,2.48-10.12,2.89-1.29.17-2.03-.09-1.48-1.49,1.33-3.34,7.75-12.28,10.17-15.83,5.56-8.16,23.99-33.69,34.22-32.68,12.29,1.21,18.08,34.77,19.43,44.66.65,4.75,1.51,9.5,1.16,14.33Z" style="fill: #f1d0b0;"/>
    </g>
    <g>
      <g>
        <path d="M551.91,360.57c0,14.05-11.39,25.44-25.44,25.44s-25.44-11.39-25.44-25.44,11.39-25.44,25.44-25.44,25.44,11.39,25.44,25.44ZM517.89,342.89c-5.59,1.29-8.15,9.88-2.06,13.62,15.1,9.28,19.33-17.6,2.06-13.62Z" style="fill: #0b0504;"/>
        <path d="M517.89,342.89c17.28-3.98,13.05,22.9-2.06,13.62-6.09-3.74-3.53-12.34,2.06-13.62Z" style="fill: #e9e8e8;"/>
      </g>
      <g>
        <path d="M522.92,278.91c8.46-1.43,23.06-1.09,25.02,9.49,3.21,17.31-20.37,31.09-35.22,32.3-25.06,2.05-26.85-18.49-9.87-31.87,4.02-3.16,15.2-9.11,20.07-9.93ZM503.33,310.53c.68.43,9.68.32,11.29.08,6.01-.91,26.68-12.73,23.1-19.93-2.85-5.72-21.05.6-25.42,3.61-3.05,2.1-14.33,12.84-8.96,16.24Z" style="fill: #0d0403;"/>
        <path d="M503.33,310.53c-5.37-3.4,5.91-14.14,8.96-16.24,4.37-3.01,22.57-9.33,25.42-3.61,3.59,7.21-17.08,19.03-23.1,19.93-1.6.24-10.6.35-11.29-.08Z" style="fill: #352314;"/>
      </g>
    </g>
    <g>
      <g>
        <path d="M266.92,278.91c14.57-2.44,41.53,7.98,45.05,23.47,6.45,28.37-34.6,18.5-47.81,5.81-9.14-8.77-13.28-26.59,2.76-29.28ZM295.84,297.01c-3.09-2.76-12.35-7.41-16.4-8.11-3.04-.52-12.19-1.39-13.11,2.46-1.8,7.51,16.32,18.02,22.59,19.07,2.04.34,11.53.81,12.37-.35,2.86-3.95-2.58-10.51-5.44-13.07Z" style="fill: #0d0404;"/>
        <path d="M295.84,297.01c2.87,2.57,8.31,9.12,5.44,13.07-.84,1.16-10.33.69-12.37.35-6.27-1.05-24.39-11.55-22.59-19.07.92-3.85,10.07-2.98,13.11-2.46,4.05.69,13.31,5.34,16.4,8.11Z" style="fill: #352314;"/>
      </g>
      <g>
        <path d="M297.71,380.28c-.25.35-1.17.37-1.28.6-.21.46.85,1.7.76,1.78-.4.39-8.88,3.97-10.1,4.42-6.75,2.5-18.79.66-24.87-2.95-1.59-.94-1.92-2.75-3.06-3.99-4.67-5.06-9.25-11.14-9-18.94.36-11.32,2.14-11.11,7.99-19.05.87-1.18,1.03-3.22,2.04-3.96.46-.33,9.44-4.64,10.15-4.85,15.03-4.4,34.28,9.14,34.74,24.92.26,8.79-2.51,15.28-7.38,22.01ZM303.03,360.58c0-13.86-11.24-25.1-25.1-25.1s-25.1,11.24-25.1,25.1,11.24,25.1,25.1,25.1,25.1-11.24,25.1-25.1Z" style="fill: #aa6b2f;"/>
        <path d="M303.03,360.58c0,13.86-11.24,25.1-25.1,25.1s-25.1-11.24-25.1-25.1,11.24-25.1,25.1-25.1,25.1,11.24,25.1,25.1ZM267.89,341.89c-5.62,1.34-8.14,9.89-2.06,13.62,15.11,9.28,19.52-17.79,2.06-13.62Z" style="fill: #0a0504;"/>
        <path d="M267.89,341.89c17.46-4.16,13.05,22.9-2.06,13.62-6.08-3.74-3.56-12.28,2.06-13.62Z" style="fill: #e9e8e8;"/>
      </g>
    </g>
  </g>
</svg>